<svg version="1.2" xmlns="http://www.w3.org/2000/svg" viewBox="0 0 791 603" width="791" height="603"><style></style><path  d="m401.5 0.5c24.3 0.2 34.5 0.6 42.5 1.9 5.8 0.9 15 2.6 20.5 3.7 5.5 1.1 16.1 3.6 23.5 5.5 7.4 2 18.4 5.2 24.5 7.1 6 2 19.8 6.8 30.5 10.9 10.7 4 25.6 9.7 33 12.7 7.4 3 18.7 7.6 25 10.2 6.3 2.5 17.8 7.4 25.5 10.8 7.7 3.3 20.1 9.1 27.5 12.8 7.4 3.7 18.6 9.8 24.8 13.6 6.2 3.7 15.2 9.6 20 13 4.8 3.4 13.2 10.2 18.7 15.1 5.5 4.8 13.3 12.6 17.3 17.2 4.1 4.7 11 13.9 15.4 20.5 4.4 6.6 10.4 16.9 13.3 23 3 6 7.1 15.5 9.1 21 2 5.5 5 14.5 6.6 20 1.6 5.5 3.8 14 4.8 19 1.1 4.9 3 14.8 4.2 22 2.1 12 2.2 16.1 2.2 54 0 36.8-0.2 42.7-2.2 57.5-1.2 9.1-3.2 21.2-4.3 27-1.2 5.8-3.9 15.9-6 22.5-2.2 6.6-5.6 15.4-7.5 19.5-2 4.1-5.2 10.2-7.2 13.5-1.9 3.3-6.6 10-10.3 15-3.7 4.9-10.9 13.5-16.1 19-5.2 5.5-14.4 14.3-20.4 19.5-6 5.3-14.3 12.3-18.4 15.6-4.1 3.3-11.1 8.7-15.5 11.9-4.4 3.2-13 9.1-19 13-6.1 4-14.2 9-18 11.3-3.9 2.2-13.3 7.2-21 11-7.7 3.8-17.6 8.4-22 10.2-4.4 1.7-10.9 4.2-14.5 5.5-3.6 1.3-11 3.7-16.5 5.3-5.5 1.7-14.1 3.9-19 5-5 1.1-12.8 2.6-17.5 3.2-4.7 0.7-9.4 1.6-10.5 2.1-1.1 0.6-13.9 0.8-29.5 0.6-25-0.3-28.6-0.6-40-2.9-6.9-1.5-16.6-3.8-21.5-5.3-5-1.4-12.8-4-17.5-5.7-4.7-1.7-13-4.9-18.5-7.1-5.5-2.2-14.3-5.5-19.5-7.2-5.2-1.8-13.3-4.2-18-5.3-4.7-1.1-10.8-2.3-13.5-2.6-2.8-0.4-10.6-1.1-17.5-1.6-8.8-0.6-22.3-0.4-45.5 0.7-19.5 0.9-41.2 1.3-53 1-13.3-0.4-23.7-1.2-31-2.5-6.1-1.1-13.9-2.8-17.5-3.7-3.6-0.9-9.9-2.8-14-4.2-4.1-1.4-12.2-4.4-18-6.6-5.8-2.3-18.6-8.2-28.5-13.2-9.9-5-21.8-11.5-26.5-14.5-4.7-3-12.8-8.5-18-12.3-5.2-3.8-14.2-11.7-20-17.6-5.8-5.9-13.5-15-17.3-20.2-3.7-5.2-9.9-15.7-13.7-23.4-3.8-7.7-8.7-19.4-10.9-26-2.2-6.6-4.7-15.2-5.6-19-0.9-3.9-2.5-12-3.6-18-1.1-6.1-2.7-16.4-3.7-23-1.3-9.7-1.6-20.8-1.6-58 0-36.4 0.4-49.4 1.7-62.5 1-9.1 2.4-21.2 3.3-27 0.8-5.8 2.2-14.1 3-18.5 0.9-4.4 2.6-12.5 3.9-18 1.3-5.5 4-15 6-21 2-6.1 5.7-15.7 8.2-21.5 2.4-5.8 7-15 10-20.5 3-5.5 8.1-13.6 11.2-18 3.1-4.4 8.1-10.9 11.2-14.5 3-3.6 8.2-9.1 11.5-12.4 3.2-3.2 9.5-8.7 13.9-12.1 4.4-3.4 11.1-8.2 15-10.5 3.8-2.4 10.6-6 15-8 4.4-2.1 11.4-4.9 15.5-6.4 4.1-1.5 12.7-4.1 19-5.7 6.3-1.7 18-4.1 26-5.4 8-1.3 21.7-3.1 30.5-4.1 9.6-1.1 16.4-2.3 17-3 0.6-0.8 8.9-2 23-3.4 12.1-1.1 33.2-3.2 47-4.6 13.7-1.3 34.4-3.3 46-4.4 11.5-1.1 23.2-2.1 26-2.3 2.7-0.3 19.4-0.3 37-0.2z"/></svg>