<svg version="1.2" xmlns="http://www.w3.org/2000/svg" viewBox="0 0 799 668" width="799" height="668"><style>.a{fill:#f0d8d8}</style><path class="a" d="m420.3 0.2c7.7-0.1 18.6 0.3 24.2 0.9 5.6 0.6 14.7 2 20.3 3.1 5.6 1.1 15.2 3.5 21.4 5.3 6.2 1.8 14.8 4.8 19.2 6.6 4.3 1.8 10.4 4.8 13.5 6.7 3.1 2 7.6 5.1 10 7.1 2.4 2 6.4 6.3 8.9 9.6 2.5 3.3 5.7 8.9 7.1 12.5 1.3 3.6 4.4 14.8 6.7 25 2.4 10.4 5.8 22 7.9 26.5 1.9 4.4 6.6 12 10.2 16.9 3.7 4.9 10.3 11.9 14.6 15.5 4.4 3.6 11.8 8.4 16.4 10.6 4.6 2.2 10.1 4.6 12.3 5.3 2.2 0.8 7.4 2.2 11.6 3.3 4.2 1 12.8 2.6 19.1 3.3 6.4 0.8 15.1 2.2 19.5 3.1 4.3 0.9 11.2 2.5 15.2 3.7 4 1.1 11.4 3.9 16.3 6 5 2.2 11.3 5.4 14.1 7.1 2.8 1.8 10.6 7.9 17.4 13.7 6.7 5.8 14.9 13.4 18.1 17 3.2 3.6 7.5 8.7 9.6 11.5 2 2.7 6 8.4 8.8 12.5 2.7 4.1 6.6 10.4 8.7 14 2 3.6 6.2 12.3 9.3 19.5 3.1 7.1 7.5 18.4 9.7 25 2.3 6.6 5.1 17.6 6.3 24.5 1.4 7.5 2.3 17.4 2.3 24.7 0 9.1-0.7 15.4-2.7 24-1.7 7.6-4.3 14.9-7.1 20.3-2.4 4.7-5.9 10.7-7.7 13.4-1.9 2.7-6.6 8.3-10.7 12.4-4 4.2-10.9 10.3-15.2 13.6-4.3 3.3-11.2 7.9-15.2 10.2-4 2.3-10.9 5.7-15.2 7.7-4.4 1.9-15 5.8-23.7 8.7-8.7 2.9-20.6 6.8-26.5 8.7-5.9 2-15.5 5.7-21.4 8.4-5.9 2.7-14.8 7.7-19.7 11.2-5 3.6-12.6 9.8-16.9 13.8-4.4 4.1-11.1 11.2-15 15.9-3.8 4.7-7.4 8.9-7.9 9.5-0.5 0.5-3 3.7-5.5 7-2.5 3.3-10.3 14.1-17.3 24-7 9.9-16.3 22.7-20.6 28.5-4.3 5.8-9.6 12.7-11.9 15.5-2.2 2.7-7.9 9-12.7 14-4.8 4.9-11.9 11.7-15.8 15.1-4 3.3-10.5 8.4-14.5 11.3-4 3-11.4 7.5-16.4 10.1-4.9 2.5-13 6.3-18 8.2-4.9 2-13.8 4.9-19.7 6.6-5.9 1.6-14.5 3.7-19.2 4.6-4.6 0.8-12 2.1-16.3 2.8-4.4 0.7-16.8 1.2-27.6 1.2-13 0-24-0.5-32.2-1.7-6.8-0.9-17.2-2.6-23.1-3.7-5.9-1.1-13.7-2.9-17.4-3.9-3.8-1.1-8.3-2.2-10.2-2.6-1.8-0.4-7.9-2.2-13.5-4.1-5.6-1.9-12.9-4.7-16.4-6.1-3.4-1.4-9.2-4.4-12.9-6.8-3.7-2.3-9.2-6.6-12.2-9.6-3-3-7-8.1-8.8-11.4-1.8-3.3-3.3-7-3.3-8.3 0-1.2-0.2-2.9-0.5-3.7-0.4-1-2.1-1.5-5.4-1.5-2.6 0-11.4-0.7-19.4-1.6-8.1-0.8-21.5-3.1-29.9-5-8.4-1.9-19.8-5.1-25.3-7.1-5.6-2-13-5.1-16.4-6.9-3.4-1.8-9.4-6.1-13.3-9.6-5-4.4-7.9-8-9.6-11.8-1.8-4.2-2.4-7.7-2.4-15 0-7.7 0.9-12.3 4.2-24 3-10.2 4.4-17.7 4.9-25.5 0.4-6.5 0.2-14.3-0.6-19-0.7-4.4-2.6-11.8-4.2-16.5-1.6-4.7-4.7-11.7-6.9-15.5-2.1-3.9-5.9-9.7-8.4-13-2.5-3.3-8.1-9.3-12.6-13.3-4.4-4.1-13.6-11.5-20.4-16.6-6.8-5.1-16.3-13-21.1-17.7-4.8-4.6-10.6-10.9-12.8-13.9-2.3-3-6.2-9.1-8.7-13.5-2.5-4.4-6.7-13.6-9.3-20.5-2.7-7-5.9-18-7.3-25-1.3-6.9-2.7-18.6-3-26-0.4-8.3-0.1-17 0.7-22.5 0.8-5 2.1-12.8 3-17.5 0.8-4.7 3.8-14.4 6.5-21.5 2.7-7.2 6.6-16.2 8.6-20 1.9-3.9 6.4-10.8 10-15.4 3.5-4.6 9.9-11.9 14.2-16.1 4.4-4.2 12-10.8 16.9-14.6 5-3.8 10.3-7.7 11.9-8.7 1.5-0.9 9.4-5.6 17.4-10.3 8.1-4.8 16.7-9.9 19.2-11.4 2.5-1.5 8.6-4.9 13.5-7.5 5-2.7 11.8-6.4 15.2-8.3 3.5-1.9 9-5.1 12.4-7 3.5-2 8-4.5 10.2-5.7 2.2-1.2 9.5-5.3 16.3-9 7.2-4 14.8-9.1 18.1-12.3 5.4-5.1 6.2-5.5 18.6-8.8 7.1-1.8 15.7-3.8 19.1-4.4 3.4-0.6 11.8-1.4 18.6-1.8 11.7-0.8 12.8-1.1 19.2-4.7 3.7-2.1 10.8-6.1 15.8-8.9 4.9-2.9 16-9 24.6-13.6 11.1-6 18.1-10.7 24.2-16.1 8.6-7.5 8.7-7.6 21.6-11.2 7.1-1.9 17.5-4.5 23.1-5.6 5.6-1.1 14-2.4 18.6-2.9 4.7-0.5 14.8-1 22.6-1z"/></svg>