<svg version="1.2" xmlns="http://www.w3.org/2000/svg" viewBox="0 0 60 60" width="60" height="60"><style>.a{opacity:1;fill:#e67c7c}.b{opacity:1;fill:#010101}</style><path class="a" d="m32.5 0.7c2.2 0.2 5.8 1 8 1.6 2.1 0.7 6.2 3.3 9 5.8 3.1 2.8 5.9 6.6 7.4 10 1.7 3.9 2.4 7.2 2.4 11.9 0 4.7-0.7 8-2.4 11.9-1.5 3.4-4.3 7.2-7.4 10-3.2 2.9-6.8 5.1-10 6.1-2.8 0.8-7.7 1.4-11 1.3-3.3-0.1-7.7-0.9-9.8-1.7-2-0.9-5.8-3.6-8.5-6-2.7-2.5-5.7-6.6-7.1-9.7-1.8-3.9-2.4-7.2-2.4-11.9 0-4.7 0.6-8 2.4-11.9 1.4-3.1 4.4-7.2 7.1-9.7 2.7-2.4 6-4.9 7.5-5.5 1.6-0.6 4.6-1.4 6.8-1.9 2.2-0.5 5.8-0.6 8-0.3z"/><path class="b" d="m27 11c0.3 0 1.1 0.5 1.7 1.2q1.3 1.3 0.7 5.8c-0.6 3.7-0.3 4.7 1.2 5.7 1.1 0.7 2.5 1 3.1 0.7 0.7-0.2 1.3-1.5 1.3-2.9 0-1.6 0.6-2.5 1.5-2.5 1.1 0 1.4 0.7 1 2.5-0.3 1.4-0.1 2.5 0.5 2.5 0.5 0 1.7-1.1 2.5-2.5 0.8-1.4 1.9-2.5 2.5-2.5 0.5 0 1.3 0.7 1.7 1.6 0.6 1.1-0.1 2.3-2.5 4-1.7 1.3-3 2.8-2.7 3.4 0.3 0.5 1.5 1 2.7 1 1.3 0 2.6 0.3 3 0.7 0.4 0.4-0.1 2.3-3.2 7.3l3 1.2c1.7 0.8 3 2 3 3 0 1-0.7 1.8-1.5 1.8-0.8 0-2.4-0.5-3.5-1-1.5-0.8-2.5-0.6-4.3 0.9-1.9 1.7-2.1 2.2-1 4.5 0.7 1.4 1 2.8 0.6 3.1-0.3 0.3-1.1 0.5-1.7 0.5-0.6 0-1.6-1-2.1-2.2-0.6-1.3-2.2-2.7-3.7-3.3-2.3-0.8-3.1-0.6-5 1.2-1.3 1.3-3.1 2.3-4.1 2.3-1.1 0-1.7-0.8-1.7-2.3 0-1.4 0.9-2.7 2.5-3.5q2.5-1.2 2.5-3.7c0-1.5-0.9-3.1-2.3-3.9-1.6-1.1-3.1-1.2-5.5-0.5-1.7 0.5-3.7 0.7-4.2 0.4-0.6-0.3-1-1.4-1-2.5 0-1.1 0.8-2.3 1.7-2.6 1-0.4 3.5-0.1 5.5 0.7 2.1 0.8 4.1 1.1 4.5 0.7 0.5-0.4-0.3-1.6-1.7-2.7-2.1-1.6-2.3-2.2-1.2-3.3 1.1-1.1 1.6-0.9 3 1.1 1 1.3 2.2 2.1 2.9 1.7 0.7-0.3 1.3-1.3 1.3-2.1 0-0.8-0.9-3.3-2-5.5-1.1-2.2-2.1-5.1-2.2-6.4-0.1-1.4 0.4-2.7 1.2-2.9 0.8-0.3 1.7-0.6 2-0.7z"/></svg>