<svg version="1.2" xmlns="http://www.w3.org/2000/svg" viewBox="0 0 907 860" width="907" height="860"><style></style><path  d="m417.5 0.2c2.2-0.1 12.3 0.3 22.5 0.8 10.2 0.5 22.3 1.6 27 2.4 4.7 0.8 10.8 2 13.5 2.5 2.7 0.6 8.4 1.9 12.5 3 4.1 1 10.6 2.9 14.5 4.1 3.8 1.2 11.5 4 17 6.2 5.5 2.2 12 5 14.5 6.3 2.5 1.2 7.6 4.4 11.5 7 3.8 2.6 9 6.6 11.3 8.9 2.4 2.2 6.5 7.2 9.1 11.1 2.7 3.8 6.2 10.6 7.8 15 1.7 4.4 4.3 13.4 5.7 20 1.5 6.6 3.6 16 4.7 21 1.2 4.9 3.8 13.5 6 19 2.1 5.5 5.9 13.4 8.5 17.5 2.5 4.1 7.2 10.6 10.4 14.5 3.1 3.8 8.1 9.1 11.1 11.6 3 2.5 8.1 6.6 11.4 9 3.3 2.4 10.5 6.6 16 9.3 5.5 2.7 10.9 5.3 12 5.7 1.1 0.4 5.1 1.7 9 2.7 3.8 1.1 9 2.5 11.5 3 2.5 0.6 12.8 2.2 23 3.7 10.2 1.4 21 3 24 3.6 3 0.5 8.4 1.7 12 2.6 3.6 0.8 9.9 2.6 14 4 4.1 1.3 12.2 4.7 18 7.5 5.8 2.7 14.3 7.4 19 10.5 4.7 3 11.9 8.2 16 11.6 4.1 3.3 10.8 9.2 14.8 13.1 4.1 3.9 10.6 10.9 14.6 15.6 3.9 4.7 9.9 12.3 13.3 17 3.3 4.7 9.1 13.4 12.7 19.5 3.7 6 9.3 16.4 12.6 23 3.2 6.6 8.1 17.6 10.8 24.5 2.7 6.9 5.9 15.4 7 19 1.2 3.6 2.9 9.2 3.7 12.5 0.9 3.3 2 8.2 2.6 11 0.6 2.7 1.7 9.3 2.5 14.5 0.8 5.2 1.4 16.2 1.4 24.5 0 8.3-0.7 18.8-1.5 23.5-0.8 4.7-2.3 11.4-3.3 15-1.1 3.6-3.3 9.6-4.9 13.5-1.6 3.8-4.9 10.1-7.2 14-2.4 3.8-6.8 10.3-9.9 14.4-3.2 4.1-9.6 11-14.3 15.5-4.8 4.5-12.4 10.8-17 14.1-4.6 3.3-12.4 8.2-17.4 11-5 2.7-13.6 7-19 9.4-5.5 2.4-10.9 4.7-12 5.1-1.1 0.5-4 1.6-6.5 2.5-2.5 0.9-6.3 2.3-8.5 3-2.2 0.8-12.3 3.9-22.5 7-10.2 3.1-21 6.5-24 7.6-3 1.2-6.4 2.5-7.5 2.9-1.1 0.4-3.8 1.6-6 2.5-2.2 0.9-7.2 3.3-11 5.2-3.9 2-10.6 5.9-15 8.8-4.4 2.8-11.4 7.9-15.5 11.2-4.1 3.4-10.7 9.2-14.5 13-3.9 3.7-9.7 9.7-13 13.3-3.3 3.6-9.4 10.8-13.6 16-4.1 5.2-9.6 12.2-12 15.5-2.5 3.3-10.8 14.8-18.4 25.5-7.6 10.7-16.8 23.5-20.4 28.5-3.6 4.9-9.7 13-13.5 18-3.9 4.9-10.9 13.5-15.7 19-4.7 5.5-12.6 13.8-17.5 18.5-4.9 4.7-12.5 11.4-16.9 15-4.4 3.5-12.5 9.3-18 12.8-5.5 3.6-16.8 9.8-25 13.8-8.3 4-19.7 8.8-25.5 10.7-5.8 2-14.1 4.5-18.5 5.6-4.4 1.2-11.2 2.8-15 3.6-3.9 0.8-11.7 2.1-17.5 3-5.8 0.8-12.9 1.5-15.8 1.5-3.1 0-5 0.4-4.7 1 0.3 0.7-8.5 1-25.5 1-17 0-25.8-0.3-25.5-1 0.3-0.6-1.7-1-5-1-3 0-10.6-0.7-16.8-1.6-6.1-0.8-14.8-2.1-19.2-2.9-4.4-0.7-9.4-1.6-11-2-1.7-0.3-6.8-1.6-11.5-2.7-4.7-1.1-13.2-3.3-19-5-5.8-1.6-15-4.4-20.5-6.3-5.5-1.9-13.6-5-18-7-4.4-2.1-11.2-5.5-15-7.8-3.9-2.3-10.1-7.1-13.9-10.7-3.8-3.6-8.4-8.8-10.1-11.5-1.8-2.8-4.3-7.7-5.6-11-2-5.3-2.3-7.6-2.3-19.5 0.1-12.4 0.4-14.6 3.8-27.5 2.1-7.7 5.1-18.7 6.6-24.5 1.5-5.8 3.3-16.4 4-23.5 1.1-10.5 1.1-15.3 0.1-25-0.7-6.6-2.3-16.5-3.6-22-1.3-5.5-3.8-13.8-5.6-18.5-1.8-4.7-5-11.9-7.2-16-2.2-4.1-6.3-10.9-9.1-15.2-2.8-4.2-8.3-11.3-12.1-15.8-3.9-4.5-11.3-11.9-16.5-16.5-5.2-4.5-18.3-14.9-29-23-10.7-8.1-24-18.7-29.4-23.4-5.5-4.7-13.6-12.9-18-18.1-4.5-5.2-11.6-14.7-15.8-21-4.1-6.3-10.1-16.7-13.1-23-3.1-6.3-6.7-14.7-8.2-18.5-1.5-3.9-3.3-8.8-4-11-0.7-2.2-2.2-7.2-3.3-11-1.2-3.9-3-11.5-4.1-17-1.1-5.5-2.6-13.6-3.2-18-0.8-4.8-1.3-18.5-1.3-34.5-0.1-17.3 0.4-29.5 1.2-35 0.8-4.7 2-11.7 2.8-15.5 0.7-3.9 2.3-10.6 3.5-15 1.1-4.4 2.4-9.4 2.9-11 0.5-1.7 1.3-4.4 1.8-6 0.5-1.7 2.6-7.3 4.7-12.5 2.1-5.2 6.3-14.5 9.3-20.5 3.1-6.1 9.1-16.2 13.3-22.5 4.2-6.3 10.8-15 14.5-19.4 3.8-4.3 7.4-8.6 8.1-9.5 0.6-0.9 6-5.9 12-11.2 5.9-5.2 14.6-12.5 19.3-16 4.7-3.6 11.9-8.8 16-11.5 4.1-2.8 12-7.8 17.5-11.1 5.5-3.3 14.3-8.5 19.5-11.5 5.2-3.1 13.5-7.8 18.5-10.5 4.9-2.8 12.1-6.7 16-8.8 3.8-2.2 11.3-6.3 16.5-9.2 5.2-3 9.6-5.3 9.7-5.3 0.2 0 4.1-2.3 8.8-5 4.7-2.8 8.7-5 9-5 0.3 0 5.1-2.6 10.7-5.8 5.7-3.3 12.3-7 14.8-8.4 2.5-1.3 14.2-7.8 26-14.3 11.8-6.5 23.5-13.3 26-15.1 2.5-1.9 7.6-5 11.5-7 3.8-2 8.8-4.9 11-6.4 2.2-1.5 8.5-4.4 14-6.4 5.5-2 14.3-4.5 19.5-5.5 5.2-1.1 12.6-2.5 16.5-3.1 3.8-0.7 14-1.6 22.5-2 8.5-0.4 17.3-0.7 19.5-0.8z"/></svg>